<svg aria-roledescription="er" viewBox="0 0 425.90777587890625 342" style="max-width: 425.908px; background-color: white;" xmlns:xlink="http://www.w3.org/1999/xlink" xmlns="http://www.w3.org/2000/svg" width="100%" id="mermaid-0"><style>#mermaid-0{font-family:"trebuchet ms",verdana,arial,sans-serif;font-size:16px;fill:#000000;}#mermaid-0 .error-icon{fill:#552222;}#mermaid-0 .error-text{fill:#552222;stroke:#552222;}#mermaid-0 .edge-thickness-normal{stroke-width:2px;}#mermaid-0 .edge-thickness-thick{stroke-width:3.5px;}#mermaid-0 .edge-pattern-solid{stroke-dasharray:0;}#mermaid-0 .edge-pattern-dashed{stroke-dasharray:3;}#mermaid-0 .edge-pattern-dotted{stroke-dasharray:2;}#mermaid-0 .marker{fill:#000000;stroke:#000000;}#mermaid-0 .marker.cross{stroke:#000000;}#mermaid-0 svg{font-family:"trebuchet ms",verdana,arial,sans-serif;font-size:16px;}#mermaid-0 .entityBox{fill:#cde498;stroke:#13540c;}#mermaid-0 .attributeBoxOdd{fill:#ffffff;stroke:#13540c;}#mermaid-0 .attributeBoxEven{fill:#f2f2f2;stroke:#13540c;}#mermaid-0 .relationshipLabelBox{fill:hsl(78.1578947368, 58.4615384615%, 84.5098039216%);opacity:0.7;background-color:hsl(78.1578947368, 58.4615384615%, 84.5098039216%);}#mermaid-0 .relationshipLabelBox rect{opacity:0.5;}#mermaid-0 .relationshipLine{stroke:#000000;}#mermaid-0 .entityTitleText{text-anchor:middle;font-size:18px;fill:#000000;}#mermaid-0 :root{--mermaid-font-family:"trebuchet ms",verdana,arial,sans-serif;}</style><g/><defs><marker orient="auto" markerHeight="18" markerWidth="18" refY="9" refX="0" id="ONLY_ONE_START"><path d="M9,0 L9,18 M15,0 L15,18" fill="none" stroke="gray"/></marker></defs><defs><marker orient="auto" markerHeight="18" markerWidth="18" refY="9" refX="18" id="ONLY_ONE_END"><path d="M3,0 L3,18 M9,0 L9,18" fill="none" stroke="gray"/></marker></defs><defs><marker orient="auto" markerHeight="18" markerWidth="30" refY="9" refX="0" id="ZERO_OR_ONE_START"><circle r="6" cy="9" cx="21" fill="white" stroke="gray"/><path d="M9,0 L9,18" fill="none" stroke="gray"/></marker></defs><defs><marker orient="auto" markerHeight="18" markerWidth="30" refY="9" refX="30" id="ZERO_OR_ONE_END"><circle r="6" cy="9" cx="9" fill="white" stroke="gray"/><path d="M21,0 L21,18" fill="none" stroke="gray"/></marker></defs><defs><marker orient="auto" markerHeight="36" markerWidth="45" refY="18" refX="18" id="ONE_OR_MORE_START"><path d="M0,18 Q 18,0 36,18 Q 18,36 0,18 M42,9 L42,27" fill="none" stroke="gray"/></marker></defs><defs><marker orient="auto" markerHeight="36" markerWidth="45" refY="18" refX="27" id="ONE_OR_MORE_END"><path d="M3,9 L3,27 M9,18 Q27,0 45,18 Q27,36 9,18" fill="none" stroke="gray"/></marker></defs><defs><marker orient="auto" markerHeight="36" markerWidth="57" refY="18" refX="18" id="ZERO_OR_MORE_START"><circle r="6" cy="18" cx="48" fill="white" stroke="gray"/><path d="M0,18 Q18,0 36,18 Q18,36 0,18" fill="none" stroke="gray"/></marker></defs><defs><marker orient="auto" markerHeight="36" markerWidth="57" refY="18" refX="39" id="ZERO_OR_MORE_END"><circle r="6" cy="18" cx="9" fill="white" stroke="gray"/><path d="M21,18 Q39,0 57,18 Q39,36 21,18" fill="none" stroke="gray"/></marker></defs><path style="stroke: gray; fill: none;" marker-start="url(#ZERO_OR_ONE_START)" marker-end="url(#ONLY_ONE_END)" d="M77.52294158935547,143L77.52294158935547,153.16666666666666C77.52294158935547,163.33333333333334,77.52294158935547,183.66666666666666,97.25943946838379,203.5014889849175C116.99593734741211,223.33631130316834,156.46893310546875,242.67262260633663,176.20543098449707,252.3407782579208L195.9419288635254,262.00893390950495" class="er relationshipLine"/><path style="stroke: gray; fill: none;" marker-start="url(#ZERO_OR_MORE_START)" marker-end="url(#ONLY_ONE_END)" d="M279.545593555157,154L274.4546428582607,162.33333333333334C269.36369216136444,170.66666666666666,259.18179076757184,187.33333333333334,254.09084007067557,204C248.9998893737793,220.66666666666666,248.9998893737793,237.33333333333334,248.9998893737793,245.66666666666666L248.9998893737793,254" class="er relationshipLine"/><path style="stroke: gray; fill: none;" marker-start="url(#ZERO_OR_MORE_START)" marker-end="url(#ONLY_ONE_END)" d="M349.10931579068176,154L352.6705693519353,162.33333333333334C356.23182291318886,170.66666666666666,363.35433003569597,187.33333333333334,354.86429909452653,204C346.37426815335715,220.66666666666666,322.2716991485111,237.33333333333334,310.22041464608816,245.66666666666666L298.16913014366514,254" class="er relationshipLine"/><g transform="translate(20,31 )" id="entity-User-682554ee-10ce-4ae0-9e11-040de6c1b6f8"><rect height="112" width="115.04588317871094" y="0" x="0" class="er entityBox"/><text style="dominant-baseline: middle; text-anchor: middle; font-size: 12px;" transform="translate(57.52294158935547,12)" y="0" x="0" id="text-entity-User-682554ee-10ce-4ae0-9e11-040de6c1b6f8" class="er entityLabel">User</text><rect height="22" width="37.39605712890625" y="24" x="0" class="er attributeBoxOdd"/><text style="dominant-baseline: middle; font-size: 10.2px;" transform="translate(5,35)" y="0" x="0" id="text-entity-User-682554ee-10ce-4ae0-9e11-040de6c1b6f8-attr-1-type" class="er entityLabel">String</text><rect height="22" width="54.96214294433594" y="24" x="37.39605712890625" class="er attributeBoxOdd"/><text style="dominant-baseline: middle; font-size: 10.2px;" transform="translate(42.39605712890625,35)" y="0" x="0" id="text-entity-User-682554ee-10ce-4ae0-9e11-040de6c1b6f8-attr-1-name" class="er entityLabel">id</text><rect height="22" width="22.68768310546875" y="24" x="92.35820007324219" class="er attributeBoxOdd"/><text style="dominant-baseline: middle; font-size: 10.2px;" transform="translate(97.35820007324219,35)" y="0" x="0" id="text-entity-User-682554ee-10ce-4ae0-9e11-040de6c1b6f8-attr-1-key" class="er entityLabel">PK</text><rect height="22" width="37.39605712890625" y="46" x="0" class="er attributeBoxEven"/><text style="dominant-baseline: middle; font-size: 10.2px;" transform="translate(5,57)" y="0" x="0" id="text-entity-User-682554ee-10ce-4ae0-9e11-040de6c1b6f8-attr-2-type" class="er entityLabel">String</text><rect height="22" width="54.96214294433594" y="46" x="37.39605712890625" class="er attributeBoxEven"/><text style="dominant-baseline: middle; font-size: 10.2px;" transform="translate(42.39605712890625,57)" y="0" x="0" id="text-entity-User-682554ee-10ce-4ae0-9e11-040de6c1b6f8-attr-2-name" class="er entityLabel">username</text><rect height="22" width="22.68768310546875" y="46" x="92.35820007324219" class="er attributeBoxEven"/><text style="dominant-baseline: middle; font-size: 10.2px;" transform="translate(97.35820007324219,57)" y="0" x="0" id="text-entity-User-682554ee-10ce-4ae0-9e11-040de6c1b6f8-attr-2-key" class="er entityLabel"/><rect height="22" width="37.39605712890625" y="68" x="0" class="er attributeBoxOdd"/><text style="dominant-baseline: middle; font-size: 10.2px;" transform="translate(5,79)" y="0" x="0" id="text-entity-User-682554ee-10ce-4ae0-9e11-040de6c1b6f8-attr-3-type" class="er entityLabel">String</text><rect height="22" width="54.96214294433594" y="68" x="37.39605712890625" class="er attributeBoxOdd"/><text style="dominant-baseline: middle; font-size: 10.2px;" transform="translate(42.39605712890625,79)" y="0" x="0" id="text-entity-User-682554ee-10ce-4ae0-9e11-040de6c1b6f8-attr-3-name" class="er entityLabel">password</text><rect height="22" width="22.68768310546875" y="68" x="92.35820007324219" class="er attributeBoxOdd"/><text style="dominant-baseline: middle; font-size: 10.2px;" transform="translate(97.35820007324219,79)" y="0" x="0" id="text-entity-User-682554ee-10ce-4ae0-9e11-040de6c1b6f8-attr-3-key" class="er entityLabel"/><rect height="22" width="37.39605712890625" y="90" x="0" class="er attributeBoxEven"/><text style="dominant-baseline: middle; font-size: 10.2px;" transform="translate(5,101)" y="0" x="0" id="text-entity-User-682554ee-10ce-4ae0-9e11-040de6c1b6f8-attr-4-type" class="er entityLabel">String</text><rect height="22" width="54.96214294433594" y="90" x="37.39605712890625" class="er attributeBoxEven"/><text style="dominant-baseline: middle; font-size: 10.2px;" transform="translate(42.39605712890625,101)" y="0" x="0" id="text-entity-User-682554ee-10ce-4ae0-9e11-040de6c1b6f8-attr-4-name" class="er entityLabel">accountId</text><rect height="22" width="22.68768310546875" y="90" x="92.35820007324219" class="er attributeBoxEven"/><text style="dominant-baseline: middle; font-size: 10.2px;" transform="translate(97.35820007324219,101)" y="0" x="0" id="text-entity-User-682554ee-10ce-4ae0-9e11-040de6c1b6f8-attr-4-key" class="er entityLabel"/></g><g transform="translate(195.9419288635254,254 )" id="entity-Account-39be3e3b-60ec-4d58-a587-4ec52c724b1f"><rect height="68" width="106.11592102050781" y="0" x="0" class="er entityBox"/><text style="dominant-baseline: middle; text-anchor: middle; font-size: 12px;" transform="translate(53.057960510253906,12)" y="0" x="0" id="text-entity-Account-39be3e3b-60ec-4d58-a587-4ec52c724b1f" class="er entityLabel">Account</text><rect height="22" width="37.39605712890625" y="24" x="0" class="er attributeBoxOdd"/><text style="dominant-baseline: middle; font-size: 10.2px;" transform="translate(5,35)" y="0" x="0" id="text-entity-Account-39be3e3b-60ec-4d58-a587-4ec52c724b1f-attr-1-type" class="er entityLabel">String</text><rect height="22" width="46.03218078613281" y="24" x="37.39605712890625" class="er attributeBoxOdd"/><text style="dominant-baseline: middle; font-size: 10.2px;" transform="translate(42.39605712890625,35)" y="0" x="0" id="text-entity-Account-39be3e3b-60ec-4d58-a587-4ec52c724b1f-attr-1-name" class="er entityLabel">id</text><rect height="22" width="22.68768310546875" y="24" x="83.42823791503906" class="er attributeBoxOdd"/><text style="dominant-baseline: middle; font-size: 10.2px;" transform="translate(88.42823791503906,35)" y="0" x="0" id="text-entity-Account-39be3e3b-60ec-4d58-a587-4ec52c724b1f-attr-1-key" class="er entityLabel">PK</text><rect height="22" width="37.39605712890625" y="46" x="0" class="er attributeBoxEven"/><text style="dominant-baseline: middle; font-size: 10.2px;" transform="translate(5,57)" y="0" x="0" id="text-entity-Account-39be3e3b-60ec-4d58-a587-4ec52c724b1f-attr-2-type" class="er entityLabel">Float</text><rect height="22" width="46.03218078613281" y="46" x="37.39605712890625" class="er attributeBoxEven"/><text style="dominant-baseline: middle; font-size: 10.2px;" transform="translate(42.39605712890625,57)" y="0" x="0" id="text-entity-Account-39be3e3b-60ec-4d58-a587-4ec52c724b1f-attr-2-name" class="er entityLabel">balance</text><rect height="22" width="22.68768310546875" y="46" x="83.42823791503906" class="er attributeBoxEven"/><text style="dominant-baseline: middle; font-size: 10.2px;" transform="translate(88.42823791503906,57)" y="0" x="0" id="text-entity-Account-39be3e3b-60ec-4d58-a587-4ec52c724b1f-attr-2-key" class="er entityLabel"/></g><g transform="translate(235.04588317871094,20 )" id="entity-Transaction-723c71f8-dbda-489b-9ea6-20be0400f1c4"><rect height="134" width="170.86190795898438" y="0" x="0" class="er entityBox"/><text style="dominant-baseline: middle; text-anchor: middle; font-size: 12px;" transform="translate(85.43095397949219,12)" y="0" x="0" id="text-entity-Transaction-723c71f8-dbda-489b-9ea6-20be0400f1c4" class="er entityLabel">Transaction</text><rect height="22" width="54.095550537109375" y="24" x="0" class="er attributeBoxOdd"/><text style="dominant-baseline: middle; font-size: 10.2px;" transform="translate(5,35)" y="0" x="0" id="text-entity-Transaction-723c71f8-dbda-489b-9ea6-20be0400f1c4-attr-1-type" class="er entityLabel">String</text><rect height="22" width="94.07867431640625" y="24" x="54.095550537109375" class="er attributeBoxOdd"/><text style="dominant-baseline: middle; font-size: 10.2px;" transform="translate(59.095550537109375,35)" y="0" x="0" id="text-entity-Transaction-723c71f8-dbda-489b-9ea6-20be0400f1c4-attr-1-name" class="er entityLabel">id</text><rect height="22" width="22.68768310546875" y="24" x="148.17422485351562" class="er attributeBoxOdd"/><text style="dominant-baseline: middle; font-size: 10.2px;" transform="translate(153.17422485351562,35)" y="0" x="0" id="text-entity-Transaction-723c71f8-dbda-489b-9ea6-20be0400f1c4-attr-1-key" class="er entityLabel">PK</text><rect height="22" width="54.095550537109375" y="46" x="0" class="er attributeBoxEven"/><text style="dominant-baseline: middle; font-size: 10.2px;" transform="translate(5,57)" y="0" x="0" id="text-entity-Transaction-723c71f8-dbda-489b-9ea6-20be0400f1c4-attr-2-type" class="er entityLabel">Float</text><rect height="22" width="94.07867431640625" y="46" x="54.095550537109375" class="er attributeBoxEven"/><text style="dominant-baseline: middle; font-size: 10.2px;" transform="translate(59.095550537109375,57)" y="0" x="0" id="text-entity-Transaction-723c71f8-dbda-489b-9ea6-20be0400f1c4-attr-2-name" class="er entityLabel">value</text><rect height="22" width="22.68768310546875" y="46" x="148.17422485351562" class="er attributeBoxEven"/><text style="dominant-baseline: middle; font-size: 10.2px;" transform="translate(153.17422485351562,57)" y="0" x="0" id="text-entity-Transaction-723c71f8-dbda-489b-9ea6-20be0400f1c4-attr-2-key" class="er entityLabel"/><rect height="22" width="54.095550537109375" y="68" x="0" class="er attributeBoxOdd"/><text style="dominant-baseline: middle; font-size: 10.2px;" transform="translate(5,79)" y="0" x="0" id="text-entity-Transaction-723c71f8-dbda-489b-9ea6-20be0400f1c4-attr-3-type" class="er entityLabel">DateTime</text><rect height="22" width="94.07867431640625" y="68" x="54.095550537109375" class="er attributeBoxOdd"/><text style="dominant-baseline: middle; font-size: 10.2px;" transform="translate(59.095550537109375,79)" y="0" x="0" id="text-entity-Transaction-723c71f8-dbda-489b-9ea6-20be0400f1c4-attr-3-name" class="er entityLabel">createdAt</text><rect height="22" width="22.68768310546875" y="68" x="148.17422485351562" class="er attributeBoxOdd"/><text style="dominant-baseline: middle; font-size: 10.2px;" transform="translate(153.17422485351562,79)" y="0" x="0" id="text-entity-Transaction-723c71f8-dbda-489b-9ea6-20be0400f1c4-attr-3-key" class="er entityLabel"/><rect height="22" width="54.095550537109375" y="90" x="0" class="er attributeBoxEven"/><text style="dominant-baseline: middle; font-size: 10.2px;" transform="translate(5,101)" y="0" x="0" id="text-entity-Transaction-723c71f8-dbda-489b-9ea6-20be0400f1c4-attr-4-type" class="er entityLabel">String</text><rect height="22" width="94.07867431640625" y="90" x="54.095550537109375" class="er attributeBoxEven"/><text style="dominant-baseline: middle; font-size: 10.2px;" transform="translate(59.095550537109375,101)" y="0" x="0" id="text-entity-Transaction-723c71f8-dbda-489b-9ea6-20be0400f1c4-attr-4-name" class="er entityLabel">debitedAccountId</text><rect height="22" width="22.68768310546875" y="90" x="148.17422485351562" class="er attributeBoxEven"/><text style="dominant-baseline: middle; font-size: 10.2px;" transform="translate(153.17422485351562,101)" y="0" x="0" id="text-entity-Transaction-723c71f8-dbda-489b-9ea6-20be0400f1c4-attr-4-key" class="er entityLabel"/><rect height="22" width="54.095550537109375" y="112" x="0" class="er attributeBoxOdd"/><text style="dominant-baseline: middle; font-size: 10.2px;" transform="translate(5,123)" y="0" x="0" id="text-entity-Transaction-723c71f8-dbda-489b-9ea6-20be0400f1c4-attr-5-type" class="er entityLabel">String</text><rect height="22" width="94.07867431640625" y="112" x="54.095550537109375" class="er attributeBoxOdd"/><text style="dominant-baseline: middle; font-size: 10.2px;" transform="translate(59.095550537109375,123)" y="0" x="0" id="text-entity-Transaction-723c71f8-dbda-489b-9ea6-20be0400f1c4-attr-5-name" class="er entityLabel">creditedAccountId</text><rect height="22" width="22.68768310546875" y="112" x="148.17422485351562" class="er attributeBoxOdd"/><text style="dominant-baseline: middle; font-size: 10.2px;" transform="translate(153.17422485351562,123)" y="0" x="0" id="text-entity-Transaction-723c71f8-dbda-489b-9ea6-20be0400f1c4-attr-5-key" class="er entityLabel"/></g><rect height="14" width="42.740234375" y="212.00112915039062" x="95.01299285888672" class="er relationshipLabelBox"/><text style="text-anchor: middle; dominant-baseline: middle; font-size: 12px;" y="219.00112915039062" x="116.38311004638672" id="rel1" class="er relationshipLabel">account</text><rect height="14" width="88.759765625" y="194.24314880371094" x="210.5983123779297" class="er relationshipLabelBox"/><text style="text-anchor: middle; dominant-baseline: middle; font-size: 12px;" y="201.24314880371094" x="254.9781951904297" id="rel2" class="er relationshipLabel">creditedAccount</text><rect height="14" width="84.83984375" y="206.8877716064453" x="305.7356262207031" class="er relationshipLabelBox"/><text style="text-anchor: middle; dominant-baseline: middle; font-size: 12px;" y="213.8877716064453" x="348.1555480957031" id="rel3" class="er relationshipLabel">debitedAccount</text></svg>